<svg width="32" height="32" viewBox="0 0 32 32" xmlns="http://www.w3.org/2000/svg">
  <!-- 主气泡轮廓 -->
  <rect x="6" y="4" width="2" height="2" fill="#7c3aed"/>
  <rect x="8" y="2" width="16" height="2" fill="#7c3aed"/>
  <rect x="24" y="4" width="2" height="2" fill="#7c3aed"/>
  <rect x="26" y="6" width="2" height="16" fill="#7c3aed"/>
  <rect x="24" y="22" width="2" height="2" fill="#7c3aed"/>
  <rect x="8" y="24" width="16" height="2" fill="#7c3aed"/>
  <rect x="6" y="22" width="2" height="2" fill="#7c3aed"/>
  <rect x="4" y="6" width="2" height="16" fill="#7c3aed"/>
  
  <!-- 气泡填充 - 渐变效果 -->
  <rect x="6" y="6" width="20" height="2" fill="#9333ea"/>
  <rect x="6" y="8" width="20" height="2" fill="#a855f7"/>
  <rect x="6" y="10" width="20" height="2" fill="#a855f7"/>
  <rect x="6" y="12" width="20" height="2" fill="#a855f7"/>
  <rect x="6" y="14" width="20" height="2" fill="#a855f7"/>
  <rect x="6" y="16" width="20" height="2" fill="#a855f7"/>
  <rect x="6" y="18" width="20" height="2" fill="#a855f7"/>
  <rect x="6" y="20" width="20" height="2" fill="#9333ea"/>
  <rect x="6" y="22" width="20" height="2" fill="#7c3aed"/>
  
  <!-- 高光效果 -->
  <rect x="10" y="8" width="6" height="2" fill="#c084fc"/>
  <rect x="12" y="10" width="4" height="2" fill="#ddd6fe"/>
  <rect x="14" y="12" width="2" height="2" fill="#f3f4f6"/>
  
  <!-- 装饰小气泡 -->
  <rect x="22" y="10" width="2" height="2" fill="#e9d5ff"/>
  <rect x="18" y="16" width="2" height="2" fill="#ddd6fe"/>
  <rect x="10" y="18" width="2" height="2" fill="#e9d5ff"/>
</svg>